<?xml version="1.0" encoding="utf-8"?>
<!-- Generator: Adobe Illustrator 16.0.0, SVG Export Plug-In . SVG Version: 6.00 Build 0)  -->
<!DOCTYPE svg PUBLIC "-//W3C//DTD SVG 1.1//EN" "http://www.w3.org/Graphics/SVG/1.1/DTD/svg11.dtd">
<svg version="1.1" id="Layer_1" xmlns="http://www.w3.org/2000/svg" xmlns:xlink="http://www.w3.org/1999/xlink" x="0px" y="0px"
	 width="850.39px" height="850.39px" viewBox="0 0 850.39 850.39" enable-background="new 0 0 850.39 850.39" xml:space="preserve">
<path fill-rule="evenodd" clip-rule="evenodd" fill="#FFFFFF" d="M450.077,556.843c-72.333-0.092-131.83-60.059-131.487-132.53
	c0.338-71.672,59.971-130.852,131.764-130.766c72.385,0.088,131.789,59.936,131.484,132.471
	C581.54,497.644,521.827,556.931,450.077,556.843z M529.949,447.991c0-16.253,0-30.405,0-46.147c-18.996,0-37.301,0-57.161,0
	c0-19.891,0-38.199,0-56.014c-16.134,0-30.639,0-46.183,0c0,19.068,0,37.02,0,56.541c-19.361,0-37.663,0-55.853,0
	c0,16.127,0,30.607,0,46.657c19.306,0,37.626,0,56.918,0c0,19.527,0,37.479,0,55.729c15.576,0,30.063,0,46.122,0
	c0-19.145,0-37.453,0-56.766C493.31,447.991,511.268,447.991,529.949,447.991z"/>
<circle fill-rule="evenodd" clip-rule="evenodd" fill="none" stroke="#FFFFFF" stroke-width="65" stroke-miterlimit="10" cx="450.214" cy="425.195" r="271.136"/>
</svg>
